<svg version="1.1" width="100" height="90" xmlns="http://www.w3.org/2000/svg" xmlns:xlink="http://www.w3.org/1999/xlink" x="0px" y="0px"
	 viewBox="0 0 100 90" style="enable-background:new 0 0 100 90;" xml:space="preserve">
<style type="text/css">
	.st0{fill:#5DDB36;}
</style>
<path class="st0" d="M53,14c-4.4,0-8,3.6-8,8v27.5c-1.2-2.7-3.5-5.6-6.2-6.3c-3.8-1-8.4,2-9.5,5.5c-0.5,2-0.2,4.2,0.9,6.9
	c5.2,12.5,11.6,24.5,19.4,33.6c0.4,0.4,0.9,0.7,1.5,0.7h27c0.4,0,0.8-0.1,1.2-0.4c2.9-2.1,5.2-5.8,7.1-10.1
	c1.9-4.3,3.4-9.3,4.2-14.3s0.8-9.5-0.3-13.6c-1-3.9-3.8-7.2-7.9-7.7c-1,0-2,0.1-2.9,0.3c-0.5-1.2-1.2-2.3-2.1-2.9
	c-1.5-1.1-3-1.4-4.2-1.4c-1.2,0-2.3,0.5-3.2,1.1c-0.4-0.7-0.9-1.3-1.4-1.8C66.8,38.3,65.3,38,64,38c-1,0-2,0.3-3,0.7V22
	C60.9,16.6,56.7,14,53,14L53,14z M53,18c2.3,0,4,1.7,4,4v21c0,0.9,0.7,1.8,1.6,2c0.9,0.2,1.9-0.3,2.3-1.1C61.3,43,62.9,42,64,42
	c0.5,0,1.4,0.2,2,0.6s1,0.9,1,2.4c0,0.9,0.7,1.7,1.5,1.9s1.8-0.2,2.2-1C71.6,44.3,72,44,73,44c0.3,0,1.2,0.2,1.9,0.6s1.1,1,1.1,2.4
	c0,0.8,0.5,1.5,1.2,1.9s1.6,0.2,2.2-0.4c0.8-0.4,1.5-0.5,2.5-0.5c2.4,0.3,3.6,1.8,4.5,4.8c0.9,3,0.9,7.3,0.2,11.8s-2.1,9.3-3.8,13.3
	C81,81.6,79,84.5,77.2,86H52c-7-8.3-13.7-21-18.1-31.7c-0.9-2.3-1-3.7-0.8-4.4c0.7-1.9,2.8-3,4.6-2.7c2.1,0.8,2.7,2.2,3.6,3.8l4,8
	c0.4,0.8,1.4,1.2,2.2,1c0.9-0.2,1.5-1.1,1.5-1.9V22C49,19.7,50.7,18,53,18L53,18z"/>
<path class="st0" d="M9,21c0-0.5,0.1-1,0.6-1.4l9-9c0.7-0.8,2.1-0.8,2.9,0s0.7,2.1,0,2.9L15.8,19H35c1.1,0,2,0.9,2,2s-0.9,2-2,2
	H15.8l5.6,5.6c0.8,0.7,0.8,2.1,0,2.9c-0.8,0.7-2.1,0.7-2.9,0l-9-9C9.1,22,9,21.6,9,21L9,21z"/>
<path class="st0" d="M97.4,21c0,0.5-0.1,1-0.6,1.4l-9,9c-0.7,0.8-2.1,0.8-2.9,0c-0.8-0.7-0.7-2.1,0-2.9l5.6-5.6H71.4
	c-1.1,0-2-0.9-2-2s0.9-2,2-2h19.2L85,13.4c-0.8-0.7-0.8-2.1,0-2.9c0.8-0.7,2.1-0.7,2.9,0l9,9C97.2,20,97.4,20.4,97.4,21L97.4,21z"/>
</svg>
