<svg
  xmlns="http://www.w3.org/2000/svg"
  xmlns:xlink="http://www.w3.org/1999/xlink"
  viewBox="0 0 470.82 609.89"
>
  <defs>
    <style>
      .cls-1,
      .cls-13,
      .cls-15 {
        fill: none;
      }
      .cls-2 {
        clip-path: url(#clip-path);
      }
      .cls-3 {
        opacity: 0.1;
      }
      .cls-4 {
        clip-path: url(#clip-path-3);
      }
      .cls-5 {
        fill: #231f20;
      }
      .cls-6 {
        fill: #97f0ff;
      }
      .cls-7 {
        fill: #ff76a7;
      }
      .cls-8 {
        fill: #1b1464;
      }
      .cls-9 {
        fill: #fff;
      }
      .cls-10 {
        opacity: 0.56;
      }
      .cls-11 {
        clip-path: url(#clip-path-12);
      }
      .cls-12 {
        fill: #2727a8;
      }
      .cls-13 {
        stroke: #97f0ff;
        stroke-width: 7px;
      }
      .cls-13,
      .cls-15 {
        stroke-miterlimit: 10;
      }
      .cls-14 {
        clip-path: url(#clip-path-17);
      }
      .cls-15 {
        stroke: #fff;
        stroke-width: 5px;
      }
    </style>
    <clipPath id="clip-path">
      <rect class="cls-1" width="470.82" height="609.89" />
    </clipPath>
    <clipPath id="clip-path-3">
      <rect class="cls-1" x="146.13" y="579.5" width="176.86" height="30.39" />
    </clipPath>
    <clipPath id="clip-path-12">
      <rect class="cls-1" x="170.74" y="70.16" width="193.25" height="111.72" />
    </clipPath>
    <clipPath id="clip-path-17">
      <rect class="cls-1" x="190.85" y="344.93" width="81.83" height="39.97" />
    </clipPath>
  </defs>
  <title>Fichier 1</title>
  <g id="Calque_2" data-name="Calque 2">
    <g id="Calque_1-2" data-name="Calque 1">
      <g class="cls-2">
        <g class="cls-2">
          <g class="cls-3">
            <g class="cls-4">
              <path
                class="cls-5"
                d="M323,594.93V595a3.74,3.74,0,0,1-1.14,2.12c-6.75,7.21-43,12.72-86.77,12.76h-.53c-42.65,0-78.23-5.18-86.59-12.08a4.39,4.39,0,0,1-1.83-2.81,5.85,5.85,0,0,1,.16-1.27,4.21,4.21,0,0,1,1.08-1.61c7.13-7.16,43.46-12.62,87.2-12.62,42.78,0,78.49,5.22,86.68,12.16a5,5,0,0,1,1.56,2,8.76,8.76,0,0,1,.19,1.26"
              />
            </g>
          </g>
        </g>
        <g class="cls-2">
          <path
            class="cls-6"
            d="M42.93,408.69a27.79,27.79,0,1,0,53.25,15.94c.4-1.34,1-3.3,1.69-5.74.47-55.58,5.07-85,10.77-101.25-17.45,4.83-61.57,77.2-65.71,91"
          />
        </g>
        <g class="cls-2">
          <path
            class="cls-7"
            d="M427.89,408.69a27.79,27.79,0,0,1-53.25,15.94c-.4-1.34-1-3.3-1.69-5.74-.47-55.58-5.07-85-10.77-101.25,17.45,4.83,61.57,77.2,65.71,91"
          />
        </g>
        <g class="cls-2">
          <path class="cls-6" d="M31.61,93.18a37.49,37.49,0,0,0,0,74.06Z" />
        </g>
        <g class="cls-2">
          <path class="cls-7" d="M439.2,93.18a37.49,37.49,0,0,1,0,74.06Z" />
        </g>
        <g class="cls-2">
          <path
            class="cls-7"
            d="M423.87,144C424,196.69,381,239.92,328.27,240l-92.86.06V0c1.07,0,2.12,0,3.17.14a37.42,37.42,0,0,1,28.49,17.3l60.67-.14c52.71-.13,95.93,42.89,96.06,95.6Z"
          />
          <path
            class="cls-7"
            d="M235.41,272V528h1.1c64.28-.14,116.26-108.41,116.08-161,0-2-.1-3.88-.26-5.78-3.8-49.89-54.5-89.31-116.43-89.18Z"
          />
        </g>
        <g class="cls-2">
          <path
            class="cls-6"
            d="M235.41,272V528h-1.1C170,527.81,118.06,419.55,118.24,367c0-2,.1-3.88.25-5.78,3.8-49.89,54.5-89.31,116.43-89.18Z"
          />
          <path
            class="cls-6"
            d="M271.29,321.8H201.68a31.52,31.52,0,0,0-31.48,31.48v19.6a31.52,31.52,0,0,0,31.48,31.48h70.95a31.52,31.52,0,0,0,31.48-31.48V354.62a32.86,32.86,0,0,0-32.82-32.82"
          />
          <path
            class="cls-6"
            d="M235.41,0V240.1L142.54,240c-52.7-.12-95.73-43.35-95.6-96.06L47,112.9c.13-52.71,43.36-95.73,96.06-95.6l60.67.14A37.44,37.44,0,0,1,232.24.14c1-.09,2.1-.14,3.17-.14"
          />
        </g>
        <g class="cls-2">
          <path
            class="cls-8"
            d="M151.74,209.93a69.59,69.59,0,0,1-69.21-69.54l.06-23.74A69.49,69.49,0,0,1,152,47.44l167.11.4a69.45,69.45,0,0,1,69.21,69.54l-.06,23.74a69.49,69.49,0,0,1-69.37,69.21Z"
          />
          <path
            class="cls-9"
            d="M152,52.51h.15l166.94.4a64.53,64.53,0,0,1,64.16,64.46l-.06,23.74a64.41,64.41,0,0,1-64.31,64.16h-.15l-166.94-.4A64.53,64.53,0,0,1,87.6,140.4l.06-23.74A64.42,64.42,0,0,1,152,52.51m0-10.13a74.66,74.66,0,0,0-74.44,74.26l-.06,23.74A74.66,74.66,0,0,0,151.73,215l166.94.4h.18a74.66,74.66,0,0,0,74.44-74.26l.06-23.74a74.66,74.66,0,0,0-74.26-74.62l-166.95-.4Z"
          />
        </g>
        <g class="cls-2">
          <g class="cls-10">
            <g class="cls-11">
              <path
                class="cls-12"
                d="M333.36,181.87h-132a30.63,30.63,0,0,1-30.63-30.63V100.78a30.63,30.63,0,0,1,30.63-30.63h132A30.63,30.63,0,0,1,364,100.78v50.46a30.63,30.63,0,0,1-30.63,30.63"
              />
            </g>
          </g>
        </g>
        <g class="cls-2">
          <path
            class="cls-9"
            d="M255.6,149.39h.09a20.56,20.56,0,0,0-40.6,0h.09a57.08,57.08,0,0,1,40.42,0"
          />
        </g>
        <g class="cls-2">
          <path
            class="cls-8"
            d="M180.7,131.66a23.06,23.06,0,1,1-23.06-23.06,23.06,23.06,0,0,1,23.06,23.06"
          />
          <circle class="cls-13" cx="157.64" cy="131.66" r="23.06" />
          <path
            class="cls-6"
            d="M153.31,141a3.61,3.61,0,1,1-3.61-3.61,3.61,3.61,0,0,1,3.61,3.61"
          />
          <path
            class="cls-6"
            d="M175.53,133a3.38,3.38,0,1,1-3.38-3.38,3.38,3.38,0,0,1,3.38,3.38"
          />
          <path
            class="cls-6"
            d="M164.81,131.66a7.17,7.17,0,1,1-7.17-7.17,7.17,7.17,0,0,1,7.17,7.17"
          />
        </g>
        <g class="cls-2">
          <circle class="cls-13" cx="313.16" cy="131.66" r="23.06" />
          <path
            class="cls-6"
            d="M307.81,141a3.61,3.61,0,1,1-3.61-3.61,3.61,3.61,0,0,1,3.61,3.61"
          />
          <path
            class="cls-6"
            d="M330,133a3.38,3.38,0,1,1-3.38-3.38A3.38,3.38,0,0,1,330,133"
          />
          <path
            class="cls-6"
            d="M320.33,131.66a7.17,7.17,0,1,1-7.17-7.17,7.17,7.17,0,0,1,7.17,7.17"
          />
        </g>
        <g class="cls-2">
          <path
            class="cls-8"
            d="M271,331.85H203.32a23.13,23.13,0,0,0-23.06,23.06v16.33a23.13,23.13,0,0,0,23.06,23.06h9.22v12.75l15.28-12.75H271a23.13,23.13,0,0,0,23.06-23.06V354.92A23.13,23.13,0,0,0,271,331.85"
          />
          <g class="cls-10">
            <g class="cls-14">
              <path
                class="cls-12"
                d="M208,344.93h47.61A17.11,17.11,0,0,1,272.69,362v5.75a17.11,17.11,0,0,1-17.11,17.11H208a17.11,17.11,0,0,1-17.11-17.11V362A17.11,17.11,0,0,1,208,344.93"
              />
            </g>
          </g>
          <path
            class="cls-15"
            d="M270.23,362.17H223.7a10.74,10.74,0,0,1,0-21.47h46.52a10.74,10.74,0,0,1,0,21.47Z"
          />
        </g>
      </g>
    </g>
  </g>
</svg>
