<svg xmlns="http://www.w3.org/2000/svg" viewBox="0 0 1513.59 295.71">
  <defs>
    <style>
      .cls-1,
      .cls-6 {
        fill: #1b1464;
      }
      .cls-2 {
        fill: #ff76a7;
      }
      .cls-3 {
        fill: #97f0ff;
      }
      .cls-4 {
        fill: #fff;
      }
      .cls-5 {
        fill: #2727a8;
        opacity: 0.56;
      }
      .cls-6,
      .cls-7 {
        stroke: #97f0ff;
        stroke-miterlimit: 10;
        stroke-width: 8.24px;
      }
      .cls-7 {
        fill: none;
      }
    </style>
  </defs>
  <g id="Jerky">
    <path
      class="cls-1"
      d="M739.6,282.37l-26.46-36v36h-5.65V237.15h5.65l26,35.27V237.15h5.66v45.22ZM752,266.09c0-9.49,6.78-17.18,16.05-17.18,9.95,0,15.83,7.69,15.83,17.64v1.35H757.46c.45,6.11,4.75,11.31,11.75,11.31a14.4,14.4,0,0,0,10.18-4.3l2.49,3.39a18.48,18.48,0,0,1-13.12,5C759,283.28,752,276.27,752,266.09ZM768.08,253c-7,0-10.4,5.88-10.62,10.85h21.48C778.71,259.08,775.55,253,768.08,253Zm31.43,29.39L786,249.59h5.65l10.85,26.9,10.85-26.9h5.43l-13.57,32.78Zm21.25-16.28c0-9.49,6.79-17.18,16.06-17.18,9.94,0,15.82,7.69,15.82,17.64v1.35H826.19c.45,6.11,4.75,11.31,11.76,11.31a14.39,14.39,0,0,0,10.17-4.3l2.49,3.39a18.46,18.46,0,0,1-13.12,5c-9.72,0-16.73-7-16.73-17.19ZM836.82,253c-7,0-10.4,5.88-10.63,10.85h21.48C847.44,259.08,844.28,253,836.82,253Zm22.61,29.39V249.59h5v5.2c2.71-3.39,6.33-5.88,10.85-5.88v5.2c-.68,0-1.13-.23-2-.23a12.16,12.16,0,0,0-9.05,5.2v23.29ZM885,293.22l1.81-3.84a6.64,6.64,0,0,0,4.75,2c2.94,0,5.2-1.81,5.2-5.88v-36h5v36c0,6.33-3.4,10.17-9.73,10.17A9.78,9.78,0,0,1,885,293.22Zm10.86-51.55a3.39,3.39,0,1,1,3.39,3.4A3.48,3.48,0,0,1,895.83,241.67Zm12.88,24.42c0-9.49,6.79-17.18,16.06-17.18,10,0,15.82,7.69,15.82,17.64v1.35H914.14c.45,6.11,4.75,11.31,11.76,11.31a14.39,14.39,0,0,0,10.17-4.3l2.49,3.39a18.46,18.46,0,0,1-13.11,5c-10,0-16.74-7-16.74-17.19ZM924.77,253c-7,0-10.4,5.88-10.63,10.85h21.48C935.39,259.08,932.23,253,924.77,253Zm22.61,29.39V249.59h5v5.2c2.71-3.39,6.33-5.88,10.85-5.88v5.2c-.68,0-1.13-.23-2-.23a12.16,12.16,0,0,0-9,5.2v23.29Zm43.18,0L978.8,267.68l-5.42,5.42v9.27h-5V237.15h5V267l17.18-17.41h6.33l-14.47,14.92,14.47,17.86Zm25.55-16.28c0-9.49,6.33-17.18,16.28-17.18s16.28,7.69,16.28,17.18-6.33,17.19-16.28,17.19S1016.11,275.59,1016.11,266.09Zm27.13,0c0-6.55-3.84-12.66-10.85-12.66s-10.85,5.88-10.85,12.66,3.84,12.66,10.85,12.66S1043.24,272.65,1043.24,266.09Zm13.57,16.28V254.11h-5.43v-4.52h5.43V247.1c0-6.78,3.84-10.63,9.49-10.63a8.61,8.61,0,0,1,5,1.13l-1.36,3.85a5.66,5.66,0,0,0-2.94-.68c-3.39,0-5.2,2.26-5.2,6.33v2.49h6.56v4.52H1062v28.26Zm18.08,0V254.11h-5.42v-4.52h5.42V247.1c0-6.78,3.85-10.63,9.5-10.63a8.58,8.58,0,0,1,5,1.13l-1.35,3.85a5.71,5.71,0,0,0-2.94-.68c-3.39,0-5.2,2.26-5.2,6.33v2.49h6.55v4.52h-6.55v28.26Zm56.3,0v-5a13.49,13.49,0,0,1-11.08,5.65c-8.59,0-14.47-6.56-14.47-17.18,0-10.4,6.11-17.19,14.47-17.19a14.46,14.46,0,0,1,11.08,5.66v-5h5v32.79h-5Zm0-8.82V258.86a11.74,11.74,0,0,0-9.72-5.2c-6.56,0-10.63,5.42-10.63,12.66s3.85,12.66,10.63,12.66A13.64,13.64,0,0,0,1131.19,273.55Zm13.79,2V237.15h5v37.31c0,2.49,1.13,4.29,3.39,4.29a5.18,5.18,0,0,0,3.39-1.35l1.58,3.84a8.9,8.9,0,0,1-6.1,2C1147.47,283.28,1145,280.34,1145,275.59Zm15.15-9.5c0-9.49,6.33-17.18,16.28-17.18s16.28,7.69,16.28,17.18-6.33,17.19-16.28,17.19S1160.13,275.59,1160.13,266.09Zm26.91,0c0-6.55-3.85-12.66-10.86-12.66s-10.85,5.88-10.85,12.66,3.84,12.66,10.85,12.66S1187,272.65,1187,266.09Zm34.59,16.28V260.89c0-5.88-2.94-7.68-7.46-7.68a13.19,13.19,0,0,0-9.72,5v24h-5V249.59h5v4.75a16.24,16.24,0,0,1,11.75-5.66c6.79,0,10.4,3.39,10.4,10.63v23.06Zm12-16.28c0-9.49,6.78-17.18,16.05-17.18,9.95,0,15.83,7.69,15.83,17.64v1.35H1239c.45,6.11,4.75,11.31,11.75,11.31a14.4,14.4,0,0,0,10.18-4.3l2.49,3.39a18.48,18.48,0,0,1-13.12,5c-9.72,0-16.73-7-16.73-17.19ZM1249.66,253c-7,0-10.4,5.88-10.62,10.85h21.48C1260.29,259.08,1257.13,253,1249.66,253Zm62.63,29.39v-5a13.48,13.48,0,0,1-11.08,5.65c-8.59,0-14.47-6.56-14.47-17.18,0-10.4,6.11-17.19,14.47-17.19a14.46,14.46,0,0,1,11.08,5.66v-5h5v32.79h-5Zm0-8.82V258.86a11.74,11.74,0,0,0-9.72-5.2c-6.56,0-10.63,5.42-10.63,12.66s3.85,12.66,10.63,12.66A13.64,13.64,0,0,0,1312.29,273.55Zm13.79,17.19,2.49-3.62c2.71,3.16,5.88,4.3,10.63,4.3,5.42,0,10.62-2.72,10.62-9.5v-5a13.66,13.66,0,0,1-11.07,5.87c-8.6,0-14.47-6.33-14.47-16.95,0-10.4,5.87-17,14.47-17a14.48,14.48,0,0,1,11.07,5.65v-5h5v32.33c0,10.4-7.69,13.79-15.6,13.79-5.43,0-9.27-1.13-13.12-5Zm23.74-17.64V258.63a12.33,12.33,0,0,0-9.72-5.2c-6.55,0-10.62,5.2-10.62,12.44s3.84,12.43,10.62,12.43A12.68,12.68,0,0,0,1349.82,273.1Zm37.54,9.27v-5a13.49,13.49,0,0,1-11.08,5.65c-8.59,0-14.47-6.56-14.47-17.18,0-10.4,6.1-17.19,14.47-17.19a14.49,14.49,0,0,1,11.08,5.66v-5h5v32.79h-5Zm0-8.82V258.86a11.76,11.76,0,0,0-9.73-5.2c-6.55,0-10.62,5.42-10.62,12.66s3.84,12.66,10.62,12.66C1381.7,278.75,1385.77,276.27,1387.36,273.55Zm13.11-31.88a3.39,3.39,0,1,1,3.39,3.4A3.48,3.48,0,0,1,1400.47,241.67Zm.9,40.7V249.59h5v32.78Zm36,0V260.89c0-5.88-2.94-7.68-7.46-7.68a13.19,13.19,0,0,0-9.72,5v24h-5V249.59h5v4.75a16.24,16.24,0,0,1,11.76-5.66c6.78,0,10.4,3.39,10.4,10.63v23.06Z"
    />
    <path
      class="cls-2"
      d="M656.17,73.91,655.49,75h-.23a14.31,14.31,0,0,0-9,13.12,6.07,6.07,0,0,0,6.1,6.1H668.6a6.08,6.08,0,0,0,6.11-6.1A14.08,14.08,0,0,0,665.66,75L665,73.91c-.46-2-2.27-2.94-4.53-2.94A4.22,4.22,0,0,0,656.17,73.91Z"
    />
    <path
      class="cls-1"
      d="M655.94,104.66h9.72c5.88,0,9.05,3.17,9.05,9v91.34c0,34.82-22.84,41.82-54.27,35.27-3.84-.68-6.1-3.85-6.1-10.18,0-7.68,1.13-11.3,8.59-11.3,2.94,0,6.56.68,9.5.68,10.4,0,14.47-3.85,14.47-14.47V113.71C646.9,108.05,650.06,104.66,655.94,104.66Zm111.47,57.43-41.61,4.3c3.62,11.07,12.44,14.92,25.55,14.92A101.45,101.45,0,0,0,774,178.14c6.33-1.58,10.18,1.36,10.18,7.69v2.94c0,5.2-2.49,8.82-7.69,10.17a111.9,111.9,0,0,1-29.84,4.3c-29.85,0-49.75-16.28-49.75-50,0-31.88,17-50.19,50-50.19,27.81,0,44.09,12.89,44.09,37.53C790.92,154.4,785.27,160.05,767.41,162.09Zm-2.27-24c0-9.27-5.65-14.47-18.31-14.47-13.56,0-21,6.11-22.38,22.84l33.91-3.39C764,142.42,765.14,141.29,765.14,138.12ZM868,112.8v5.65c0,5.88-3.39,9-9.95,9-20.58.22-21.48,2-21.48,9.49v55.4c0,5.87-3.16,9-9,9h-9.73c-5.87,0-9-3.17-9-9V133.15c0-22.61,8.14-28.71,49.74-29.39C864.63,103.76,868,106.92,868,112.8Zm99.48,88.63h-8.59c-5.65,0-10.18-1.58-12.66-4.75l-36.63-42.5v38.21c0,5.87-3.17,9-9,9h-9.27c-5.88,0-9-3.17-9-9V72.78c0-5.88,3.17-9,9-9h9.27c5.87,0,9,3.16,9,9v72.8l36.4-36.4c2.49-2.94,6.78-4.52,12.66-4.52h7.91c8.37,0,12,4.52,7.24,9.72l-36.18,35.27L975,191.71C979.26,197.13,975.64,201.43,967.5,201.43Zm182-53.58v44.76c0,5.88-3.16,9-9,9h-8.82c-5.88,0-9-3.17-9-9V146.49c0-14-6.11-20.35-19-20.35s-17.86,6.33-17.86,20.35v46.12c0,5.88-3.17,9-9,9h-8.59c-5.88,0-9-3.17-9-9V146.49c0-14-4.75-20.35-17.86-20.35-12.89,0-19,6.33-19,20.35v46.12c0,5.88-3.16,9-9,9h-8.82c-5.88,0-9-3.17-9-9V147.85c0-32.79,17-44.77,43.41-44.77,17.41,0,27.81,5,33.46,13.79,5.65-8.82,16-13.79,33.46-13.79,26.91,0,43.86,11.76,43.86,44.77Zm109-7v32.55c0,20.58-9.27,28.27-30.52,28.27h-22.38c-24,0-38.67-6.33-38.67-29.62s14.7-29.62,38.67-29.62h25.54v-1.58c0-10.86-8.59-15.6-22.83-15.6a138.2,138.2,0,0,0-25.32,2.94c-6.11,1.13-10-1.59-10-7.92v-3.62c0-5.42,2.94-9,9.49-10.17a149.17,149.17,0,0,1,29.85-3.39C1238.81,103.08,1258.48,114.38,1258.48,140.84Zm-27.36,31v-9.95h-24.19c-12,0-14.47,2.72-14.47,9.95s2.49,9.95,14.25,9.95h14.47c8.59.23,9.94-3.39,9.94-9.95Zm102.43-44.54h-26.68v38.66c0,9.95,4.52,14.25,15.14,14.25,5.2,0,8.6-1.13,12-1.13,6.1,0,8.36,2.26,8.36,7.23v5c0,5-2.26,8.59-7.23,9.72-31.2,7.46-56.3-.45-56.3-34.82V91.32c0-5.88,3.17-9,9-9h9.73c5.87,0,9,3.16,9,9v13.34h26.68c5.88,0,9,3.17,9,9V118c.23,5.88-3.16,9.27-8.81,9.27Zm91.79,34.82-41.6,4.3c3.62,11.07,12.43,14.92,25.55,14.92a101.52,101.52,0,0,0,22.61-3.17c6.33-1.58,10.17,1.36,10.17,7.69v2.94c0,5.2-2.49,8.82-7.69,10.17a111.79,111.79,0,0,1-29.84,4.3c-29.85,0-49.74-16.28-49.74-50,0-31.88,17-50.19,50-50.19,27.81,0,44.09,12.89,44.09,37.53C1448.85,154.4,1443,160.05,1425.34,162.09Zm-2.26-24c0-9.27-5.65-14.47-18.32-14.47-13.56,0-21,6.11-22.38,22.84l33.92-3.39C1422,142.42,1423.08,141.29,1423.08,138.12Z"
    />
    <path
      class="cls-1"
      d="M1473,111.1h-3.64V85.88h-8.06V82.5h19.76v3.38H1473ZM1510,87.44l-9.75,23.66h-1l-9.75-23.66V111.1h-3.64V82.5h5.59l8.32,20.8L1508,82.5h5.59v28.6H1510Z"
    />
    <path
      id="Mouth"
      class="cls-3"
      d="M37.2,109.64a44.12,44.12,0,0,0,0,87.14Z"
    />
    <path
      id="Mouth-2"
      data-name="Mouth"
      class="cls-2"
      d="M516.77,109.64a44.12,44.12,0,0,1,0,87.14Z"
    />
    <path
      class="cls-2"
      d="M498.74,169.41c.15,62-50.47,112.88-112.49,113L277,282.51V0c1.26,0,2.49.06,3.73.16a44,44,0,0,1,33.52,20.36l71.39-.16c62-.16,112.87,50.46,113,112.48Z"
    />
    <path
      class="cls-3"
      d="M277,0V282.51l-109.27-.07c-62-.15-112.64-51-112.49-113l.09-36.57c.15-62,51-112.64,113-112.48l71.39.16A44.06,44.06,0,0,1,273.26.16C274.48.06,275.73,0,277,0Z"
    />
    <path
      class="cls-1"
      d="M178.54,247a81.72,81.72,0,0,1-81.43-81.82l.07-27.94A81.75,81.75,0,0,1,178.8,55.82l196.63.47a81.87,81.87,0,0,1,81.43,81.82L456.8,166a81.77,81.77,0,0,1-81.63,81.44Z"
    />
    <path
      class="cls-4"
      d="M178.8,61.78H179l196.43.47A75.92,75.92,0,0,1,450.9,138.1L450.84,166a75.93,75.93,0,0,1-75.67,75.49H375l-196.43-.47a75.93,75.93,0,0,1-75.49-75.85l.07-27.93A75.92,75.92,0,0,1,178.8,61.78m0-11.92a87.85,87.85,0,0,0-87.58,87.38l-.07,27.93A87.86,87.86,0,0,0,178.53,253l196.43.47h.21a87.84,87.84,0,0,0,87.58-87.38l.07-27.93a87.83,87.83,0,0,0-87.38-87.8L179,49.86Z"
    />
    <rect
      class="cls-5"
      x="200.89"
      y="82.55"
      width="227.39"
      height="131.45"
      rx="36.04"
    />
    <path
      class="cls-4"
      d="M253.19,149.5h-.11a24.19,24.19,0,0,0,47.78,0h-.12c-6.2,2.7-14.56,4.35-23.77,4.35S259.4,152.2,253.19,149.5Z"
    />
    <circle class="cls-6" cx="185.49" cy="154.91" r="27.13" />
    <circle class="cls-3" cx="176.14" cy="165.91" r="4.24" />
    <circle class="cls-3" cx="202.56" cy="156.48" r="3.97" />
    <circle class="cls-3" cx="193.63" cy="144.96" r="8.43" />
    <circle class="cls-7" cx="368.47" cy="154.91" r="27.13" />
    <circle class="cls-3" cx="357.93" cy="165.91" r="4.24" />
    <circle class="cls-3" cx="384.34" cy="156.48" r="3.97" />
    <circle class="cls-3" cx="375.42" cy="144.96" r="8.43" />
  </g>
</svg>
