<svg xmlns="http://www.w3.org/2000/svg" viewBox="0 0 899.25 648.75">
  <defs>
    <style>
      .cls-1,
      .cls-6 {
        fill: #1b1464;
      }
      .cls-2 {
        fill: #ff76a7;
      }
      .cls-3 {
        fill: #97f0ff;
      }
      .cls-4 {
        fill: #fff;
      }
      .cls-5 {
        fill: #2727a8;
        opacity: 0.56;
      }
      .cls-6,
      .cls-7 {
        stroke: #97f0ff;
        stroke-miterlimit: 10;
        stroke-width: 9.79px;
      }
      .cls-7 {
        fill: none;
      }
    </style>
  </defs>
  <g id="Jerky">
    <path
      class="cls-1"
      d="M125.26,635.41,98.8,599.46v35.95H93.15V590.19H98.8l26,35.27V590.19h5.66v45.22Zm12.43-16.28c0-9.49,6.78-17.18,16.05-17.18,9.95,0,15.83,7.69,15.83,17.63v1.36H143.12c.45,6.11,4.75,11.31,11.75,11.31a14.4,14.4,0,0,0,10.18-4.3l2.49,3.39a18.48,18.48,0,0,1-13.12,5C144.7,636.32,137.69,629.31,137.69,619.13ZM153.74,606c-7,0-10.4,5.88-10.62,10.85H164.6C164.37,612.12,161.21,606,153.74,606Zm31.43,29.39-13.56-32.78h5.65l10.85,26.9L199,602.63h5.43l-13.57,32.78Zm21.25-16.28c0-9.49,6.79-17.18,16.06-17.18,9.94,0,15.82,7.69,15.82,17.63v1.36H211.85c.45,6.11,4.75,11.31,11.76,11.31a14.39,14.39,0,0,0,10.17-4.3l2.49,3.39a18.46,18.46,0,0,1-13.12,5c-9.72,0-16.73-7-16.73-17.19ZM222.48,606c-7,0-10.4,5.88-10.63,10.85h21.48C233.1,612.12,229.94,606,222.48,606Zm22.61,29.39V602.63h5v5.2c2.71-3.39,6.33-5.88,10.85-5.88v5.2c-.68,0-1.13-.23-2-.23a12.16,12.16,0,0,0-9,5.2v23.29Zm25.54,10.85,1.81-3.84a6.64,6.64,0,0,0,4.75,2c2.94,0,5.2-1.81,5.2-5.88v-36h5v36c0,6.33-3.4,10.17-9.73,10.17A9.78,9.78,0,0,1,270.63,646.26Zm10.86-51.55a3.39,3.39,0,1,1,3.39,3.4A3.48,3.48,0,0,1,281.49,594.71Zm12.88,24.42c0-9.49,6.79-17.18,16.06-17.18,9.95,0,15.82,7.69,15.82,17.63v1.36H299.8c.45,6.11,4.75,11.31,11.76,11.31a14.39,14.39,0,0,0,10.17-4.3l2.49,3.39a18.46,18.46,0,0,1-13.11,5c-9.95,0-16.74-7-16.74-17.19ZM310.43,606c-7,0-10.4,5.88-10.63,10.85h21.48C321.05,612.12,317.89,606,310.43,606ZM333,635.41V602.63h5v5.2c2.71-3.39,6.33-5.88,10.85-5.88v5.2c-.68,0-1.13-.23-2-.23a12.16,12.16,0,0,0-9.05,5.2v23.29Zm43.18,0-11.76-14.69L359,626.14v9.27h-5V590.19h5V620l17.18-17.41h6.33l-14.47,14.92,14.47,17.86Zm25.55-16.28c0-9.49,6.33-17.18,16.28-17.18s16.28,7.69,16.28,17.18-6.33,17.19-16.28,17.19S401.77,628.63,401.77,619.13Zm27.13,0c0-6.55-3.84-12.66-10.85-12.66s-10.85,5.88-10.85,12.66,3.84,12.66,10.85,12.66S428.9,625.69,428.9,619.13Zm13.57,16.28V607.15H437v-4.52h5.43v-2.49c0-6.78,3.84-10.63,9.49-10.63a8.61,8.61,0,0,1,5,1.13l-1.36,3.85a5.66,5.66,0,0,0-2.94-.68c-3.39,0-5.2,2.26-5.2,6.33v2.49H454v4.52h-6.33v28.26Zm18.08,0V607.15h-5.42v-4.52h5.42v-2.49c0-6.78,3.85-10.63,9.5-10.63a8.58,8.58,0,0,1,5,1.13l-1.35,3.85a5.71,5.71,0,0,0-2.94-.68c-3.39,0-5.2,2.26-5.2,6.33v2.49h6.55v4.52h-6.55v28.26Zm56.3,0v-5a13.49,13.49,0,0,1-11.08,5.65c-8.59,0-14.47-6.56-14.47-17.18,0-10.4,6.11-17.19,14.47-17.19a14.46,14.46,0,0,1,11.08,5.66v-5h5v32.79h-5Zm0-8.82V611.9a11.74,11.74,0,0,0-9.72-5.2c-6.56,0-10.63,5.42-10.63,12.66S500.35,632,507.13,632A13.64,13.64,0,0,0,516.85,626.59Zm13.79,2V590.19h5V627.5c0,2.49,1.13,4.29,3.39,4.29a5.18,5.18,0,0,0,3.39-1.35l1.58,3.84a8.9,8.9,0,0,1-6.1,2C533.13,636.32,530.64,633.38,530.64,628.63Zm15.15-9.5c0-9.49,6.33-17.18,16.28-17.18s16.28,7.69,16.28,17.18-6.33,17.19-16.28,17.19S545.79,628.63,545.79,619.13Zm26.91,0c0-6.55-3.85-12.66-10.86-12.66S551,612.35,551,619.13s3.84,12.66,10.85,12.66S572.7,625.69,572.7,619.13Zm34.59,16.28V613.93c0-5.88-2.94-7.68-7.46-7.68a13.19,13.19,0,0,0-9.72,5v24h-5V602.63h5v4.75a16.24,16.24,0,0,1,11.75-5.66c6.79,0,10.4,3.39,10.4,10.63v23.06Zm12-16.28c0-9.49,6.78-17.18,16.05-17.18,9.95,0,15.83,7.69,15.83,17.63v1.36H624.7c.45,6.11,4.75,11.31,11.75,11.31a14.4,14.4,0,0,0,10.18-4.3l2.49,3.39a18.48,18.48,0,0,1-13.12,5c-9.72,0-16.73-7-16.73-17.19ZM635.32,606c-7,0-10.4,5.88-10.62,10.85h21.48C646,612.12,642.79,606,635.32,606ZM698,635.41v-5a13.48,13.48,0,0,1-11.08,5.65c-8.59,0-14.47-6.56-14.47-17.18,0-10.4,6.11-17.19,14.47-17.19A14.46,14.46,0,0,1,698,607.38v-5h5v32.79h-5Zm0-8.82V611.9a11.74,11.74,0,0,0-9.72-5.2c-6.56,0-10.63,5.42-10.63,12.66S681.45,632,688.23,632A13.64,13.64,0,0,0,698,626.59Zm13.79,17.19,2.49-3.62c2.71,3.16,5.88,4.3,10.63,4.3,5.42,0,10.62-2.72,10.62-9.5v-5a13.66,13.66,0,0,1-11.07,5.87c-8.6,0-14.47-6.33-14.47-17,0-10.4,5.87-17,14.47-17a14.48,14.48,0,0,1,11.07,5.65v-5h5V635c0,10.4-7.69,13.79-15.6,13.79-5.43,0-9.27-1.13-13.12-5Zm23.74-17.64V611.67a12.33,12.33,0,0,0-9.72-5.2c-6.55,0-10.62,5.2-10.62,12.44s3.84,12.43,10.62,12.43A12.68,12.68,0,0,0,735.48,626.14ZM773,635.41v-5a13.51,13.51,0,0,1-11.08,5.65c-8.59,0-14.47-6.56-14.47-17.18,0-10.4,6.1-17.19,14.47-17.19A14.49,14.49,0,0,1,773,607.38v-5h5v32.79h-5Zm0-8.82V611.9a11.76,11.76,0,0,0-9.73-5.2c-6.55,0-10.62,5.42-10.62,12.66S756.51,632,763.29,632C767.36,631.79,771.43,629.31,773,626.59Zm13.11-31.88a3.39,3.39,0,1,1,3.39,3.4A3.48,3.48,0,0,1,786.13,594.71Zm.9,40.7V602.63h5v32.78Zm36,0V613.93c0-5.88-2.94-7.68-7.46-7.68a13.19,13.19,0,0,0-9.72,5v24h-5V602.63h5v4.75a16.24,16.24,0,0,1,11.76-5.66c6.78,0,10.4,3.39,10.4,10.63v23.06Z"
    />
    <path
      class="cls-1"
      d="M41.6,457.7h9.72c5.88,0,9,3.17,9,9.05v91.34c0,34.82-22.84,41.82-54.27,35.27-3.84-.68-6.1-3.85-6.1-10.18,0-7.68,1.13-11.3,8.59-11.3,2.94,0,6.56.68,9.5.68,10.4,0,14.47-3.85,14.47-14.47V466.75C32.56,461.09,35.72,457.7,41.6,457.7Zm111.47,57.43-41.61,4.3c3.62,11.07,12.44,14.92,25.55,14.92a101.45,101.45,0,0,0,22.61-3.17c6.33-1.58,10.18,1.36,10.18,7.69v2.94c0,5.2-2.49,8.82-7.69,10.17a111.92,111.92,0,0,1-29.85,4.3c-29.84,0-49.74-16.28-49.74-50,0-31.88,17-50.19,50-50.19,27.81,0,44.09,12.89,44.09,37.53C176.58,507.44,170.93,513.09,153.07,515.13Zm-2.27-24c0-9.27-5.65-14.47-18.31-14.47-13.56,0-21,6.11-22.38,22.84L144,496.14C149.67,495.46,150.8,494.33,150.8,491.16Zm102.88-25.32v5.65c0,5.88-3.39,9.05-10,9.05-20.58.22-21.48,2-21.48,9.49v55.4c0,5.87-3.16,9-9,9h-9.73c-5.87,0-9-3.17-9-9V486.19c0-22.61,8.14-28.71,49.74-29.39C250.29,456.8,253.68,460,253.68,465.84Zm99.48,88.63h-8.59c-5.66,0-10.18-1.58-12.66-4.75l-36.63-42.5v38.21c0,5.87-3.17,9-9,9H277c-5.88,0-9.05-3.17-9.05-9V425.82c0-5.88,3.17-9,9.05-9h9.27c5.87,0,9,3.16,9,9v72.8l36.4-36.4c2.49-2.94,6.78-4.52,12.66-4.52h7.91c8.37,0,12,4.52,7.24,9.72l-36.18,35.27,37.31,42.06C364.92,550.17,361.3,554.47,353.16,554.47Zm182-53.58v44.76c0,5.88-3.16,9.05-9,9.05H517.3c-5.88,0-9-3.17-9-9.05V499.53c0-14-6.11-20.35-19-20.35s-17.86,6.33-17.86,20.35v46.12c0,5.88-3.17,9.05-9.05,9.05h-8.59c-5.88,0-9-3.17-9-9.05V499.53c0-14-4.75-20.35-17.86-20.35-12.89,0-19,6.33-19,20.35v46.12c0,5.88-3.16,9.05-9,9.05H390c-5.88,0-9-3.17-9-9.05V500.89c0-32.79,17-44.77,43.41-44.77,17.41,0,27.81,5,33.46,13.79,5.65-8.82,16.05-13.79,33.46-13.79,26.91,0,43.86,11.76,43.86,44.77Zm109-7v32.55c0,20.58-9.27,28.27-30.52,28.27H591.24c-24,0-38.67-6.33-38.67-29.62s14.7-29.62,38.67-29.62h25.54v-1.58c0-10.86-8.59-15.6-22.83-15.6a138.2,138.2,0,0,0-25.32,2.94c-6.11,1.13-10-1.59-10-7.92v-3.62c0-5.42,2.94-9,9.49-10.17A149.17,149.17,0,0,1,598,456.12C624.47,456.12,644.14,467.42,644.14,493.88Zm-27.36,31v-10H592.59c-12,0-14.47,2.72-14.47,10s2.49,9.95,14.25,9.95h14.47c8.59.23,9.94-3.39,9.94-9.95ZM719.2,480.31H692.53V519c0,9.95,4.52,14.25,15.14,14.25,5.2,0,8.6-1.13,12-1.13,6.1,0,8.36,2.26,8.36,7.23v5c0,5-2.26,8.59-7.23,9.72-31.2,7.46-56.3-.45-56.3-34.82V444.36c0-5.88,3.17-9,9-9h9.73c5.87,0,9,3.16,9,9V457.7H719c5.88,0,9,3.17,9,9.05V471c.23,5.88-3.16,9.27-8.81,9.27ZM811,515.13l-41.6,4.3C773,530.5,781.83,534.35,795,534.35a101.52,101.52,0,0,0,22.61-3.17c6.33-1.58,10.17,1.36,10.17,7.69v2.94c0,5.2-2.49,8.82-7.69,10.17a111.79,111.79,0,0,1-29.84,4.3c-29.85,0-49.74-16.28-49.74-50,0-31.88,16.95-50.19,50-50.19,27.81,0,44.09,12.89,44.09,37.53C834.51,507.44,828.63,513.09,811,515.13Zm-2.26-24c0-9.27-5.65-14.47-18.32-14.47-13.56,0-21,6.11-22.38,22.84L802,496.14C807.61,495.46,808.74,494.33,808.74,491.16Z"
    />
    <path
      class="cls-2"
      d="M41.83,427l-.68,1.13h-.23a14.31,14.31,0,0,0-9,13.12,6.07,6.07,0,0,0,6.1,6.1H54.26a6.08,6.08,0,0,0,6.11-6.1,14.08,14.08,0,0,0-9-13.12L50.65,427c-.46-2-2.27-2.94-4.53-2.94A4.22,4.22,0,0,0,41.83,427Z"
    />
    <path
      class="cls-1"
      d="M858.69,464.14h-3.64V438.92H847v-3.38h19.76v3.38h-8.06Zm36.92-23.66-9.75,23.66h-1l-9.75-23.66v23.66h-3.64v-28.6H877l8.32,20.8,8.32-20.8h5.59v28.6h-3.64Z"
    />
    <path
      id="Mouth"
      class="cls-3"
      d="M132.21,130.33a52.44,52.44,0,0,0,0,103.59Z"
    />
    <path
      id="Mouth-2"
      data-name="Mouth"
      class="cls-2"
      d="M702.31,130.33a52.44,52.44,0,0,1,0,103.59Z"
    />
    <path
      class="cls-2"
      d="M680.86,201.39c.18,73.72-60,134.19-133.71,134.36l-129.89.08V0c1.5,0,3,.07,4.44.2a52.29,52.29,0,0,1,39.84,24.19l84.86-.19c73.73-.18,134.18,60,134.36,133.71Z"
    />
    <path
      class="cls-3"
      d="M417.26,0V335.83l-129.9-.08c-73.71-.17-133.9-60.64-133.71-134.36l.09-43.48C153.93,84.19,214.39,24,288.1,24.2l84.86.19A52.35,52.35,0,0,1,412.83.2C414.28.07,415.76,0,417.26,0Z"
    />
    <path
      class="cls-1"
      d="M300.23,293.63a97.15,97.15,0,0,1-96.8-97.27l.08-33.2a97.18,97.18,0,0,1,97-96.8l233.74.55a97.34,97.34,0,0,1,96.8,97.27L631,197.39a97.18,97.18,0,0,1-97,96.8Z"
    />
    <path
      class="cls-4"
      d="M300.54,73.44h.22l233.5.56A90.26,90.26,0,0,1,624,164.16l-.08,33.21A90.24,90.24,0,0,1,534,287.1h-.21l-233.51-.55a90.27,90.27,0,0,1-89.74-90.17l.08-33.2a90.28,90.28,0,0,1,90-89.74m0-14.17c-57.15,0-104,46.69-104.12,103.87l-.08,33.21c-.13,57.26,46.61,104.23,103.87,104.37l233.51.55H534c57.15,0,104-46.69,104.12-103.87l.08-33.2C638.31,106.93,591.56,60,534.3,59.83l-233.51-.56Z"
    />
    <rect
      class="cls-5"
      x="326.8"
      y="98.13"
      width="270.31"
      height="156.26"
      rx="42.84"
    />
    <path
      class="cls-4"
      d="M389,177.72h-.13a28.75,28.75,0,0,0,56.79,0h-.13c-7.38,3.21-17.32,5.17-28.27,5.17S396.35,180.93,389,177.72Z"
    />
    <circle class="cls-6" cx="308.49" cy="184.15" r="32.26" />
    <circle class="cls-3" cx="297.38" cy="197.23" r="5.05" />
    <circle class="cls-3" cx="328.78" cy="186.02" r="4.72" />
    <circle class="cls-3" cx="318.17" cy="172.32" r="10.02" />
    <circle class="cls-7" cx="526.01" cy="184.15" r="32.26" />
    <circle class="cls-3" cx="513.48" cy="197.23" r="5.05" />
    <circle class="cls-3" cx="544.88" cy="186.02" r="4.72" />
    <circle class="cls-3" cx="534.27" cy="172.32" r="10.02" />
  </g>
</svg>
