<svg xmlns="http://www.w3.org/2000/svg" id="Calque_1" data-name="Calque 1" viewBox="0 0 58.96 55.28"><defs><style>.cls-1{fill:#fff;}</style></defs><title>sound</title><g id="Calque_2" data-name="Calque 2"><g id="Layer_1" data-name="Layer 1"><path class="cls-1" d="M30,11.77a1.53,1.53,0,0,0-.75.23l-9,6.23a1.07,1.07,0,0,1-.65.18H11.7a2.23,2.23,0,0,0-2.23,2.23V34a2.23,2.23,0,0,0,2.23,2.23h7.9a1.14,1.14,0,0,1,.65.18l9,6.23a1.53,1.53,0,0,0,.75.23,1.91,1.91,0,0,0,1.67-2.09V13.86A1.91,1.91,0,0,0,30,11.77Z"/><path class="cls-1" d="M37.83,20.92a1.05,1.05,0,1,0-1.49,1.49,7,7,0,0,1,0,9.76,1,1,0,0,0-.07,1.41.46.46,0,0,0,.07.07,1.12,1.12,0,0,0,.75.33,1,1,0,0,0,.74-.33,8.92,8.92,0,0,0,2.6-6.36A9.09,9.09,0,0,0,37.83,20.92Zm2.83-3.3a1.05,1.05,0,0,0-1.48,1.49,11.51,11.51,0,0,1,0,16.26l0,.05a1,1,0,0,0-.08,1.41.6.6,0,0,0,.08.08,1.09,1.09,0,0,0,.74.32,1,1,0,0,0,.74-.32,13.8,13.8,0,0,0,4-9.67,14,14,0,0,0-4-9.62h0m3.44-3.34a1,1,0,0,0-1.41-.08l-.08.08a1.06,1.06,0,0,0,0,1.49,16.3,16.3,0,0,1,0,23.07l0,0a1,1,0,0,0-.07,1.41l.07.07a1.12,1.12,0,0,0,.75.33,1,1,0,0,0,.74-.33,18.44,18.44,0,0,0,0-26.06h0"/></g></g></svg>